<svg width="32" height="32" viewBox="0 0 32 32" fill="none" xmlns="http://www.w3.org/2000/svg">
<path fill-rule="evenodd" clip-rule="evenodd" d="M12.8335 4.16663C12.2812 4.16663 11.8335 4.61434 11.8335 5.16662V24.8333C11.8335 25.3856 12.2812 25.8333 12.8335 25.8333H25.0002C25.5524 25.8333 26.0002 25.3856 26.0002 24.8333V9.58084C26.0002 9.31562 25.8948 9.06127 25.7073 8.87373L21.2931 4.45952C21.1055 4.27198 20.8512 4.16663 20.5859 4.16663H12.8335ZM20.5835 5.41663V8.58329C20.5835 9.13558 21.0312 9.58329 21.5835 9.58329H24.7502L20.5835 5.41663Z" fill="black"/>
<path d="M6 7.76401C6 7.51958 6.08952 7.28362 6.25165 7.1007L9 4V26H7C6.44772 26 6 25.5523 6 25V7.76401Z" fill="black"/>
</svg>
